#!OML:ASF H:\Dans Jumps\Project 1\Capture day 1\Session 1\subject.ASF
:FULLY-SPECIFIED
:DEGREES
487
root 0.276313 17.7531 -6.60611 6.42904 0.0128103 -1.4342
lowerback -0.419985 0.19803 -0.421972
upperback 3.53086 0.225756 1.48604
thorax 3.85989 0.072484 1.77584
lowerneck -11.4177 0.482968 -1.90304
upperneck 36.9964 1.04947 0.589327
head 14.6682 0.270148 0.747384
rclavicle -3.77691e-015 -1.11319e-014
rhumerus -10.1157 5.96258 -90.6776
rradius 31.6963
rwrist 28.1237
rhand -20.4226 -22.7868
rfingers 7.12502
rthumb 5.93186 -52.6837
lclavicle -3.77691e-015 -1.11319e-014
lhumerus -7.17211 -26.5266 93.7848
lradius 32.5506
lwrist 15.0517
lhand -26.3784 -7.73214
lfingers 7.12502
lthumb 0.180258 22.2475
rfemur -16.2217 -2.5435 20.0286
rtibia 21.8704
rfoot -11.4792 -2.61668
rtoes 15.8903
lfemur -14.7242 6.25754 -19.3135
ltibia 18.8203
lfoot -8.64 7.11243
ltoes 8.3613
488
root 0.273759 17.7543 -6.60129 6.4676 0.011821 -1.4396
lowerback -0.431606 0.195749 -0.406442
upperback 3.54101 0.222206 1.48483
thorax 3.87719 0.0710761 1.76587
lowerneck -11.4317 0.497775 -1.89087
upperneck 37.093 1.07301 0.580198
head 14.7174 0.279642 0.746065
rclavicle 3.57812e-015 -1.98785e-016
rhumerus -10.5659 5.63097 -90.6394
rradius 31.3843
rwrist 28.3347
rhand -20.2822 -22.8243
rfingers 7.12502
rthumb 6.06737 -52.7174
lclavicle 3.57812e-015 -1.98785e-016
lhumerus -7.71842 -26.4884 94.0798
lradius 32.3388
lwrist 14.8576
lhand -26.1104 -7.6564
lfingers 7.12502
lthumb 0.439094 22.3229
rfemur -16.2289 -2.53921 20.0451
rtibia 21.8371
rfoot -11.4783 -2.6271
rtoes 15.8842
lfemur -14.73 6.27711 -19.3013
ltibia 18.7863
lfoot -8.64373 7.0923
ltoes 8.37258
489
root 0.271196 17.7554 -6.59611 6.50068 0.022977 -1.44748
lowerback -0.438469 0.188707 -0.386701
upperback 3.5521 0.212173 1.48437
thorax 3.89298 0.0665706 1.75407
lowerneck -11.4409 0.511806 -1.88105
upperneck 37.1809 1.09447 0.574666
head 14.7614 0.288468 0.74622
rclavicle -2.28602e-015 -7.95139e-015
rhumerus -11.0214 5.25494 -90.586
rradius 31.0425
rwrist 28.5666
rhand -20.1281 -22.8576
rfingers 7.12502
rthumb 6.21617 -52.7464
lclavicle -2.28602e-015 -7.95139e-015
lhumerus -8.28275 -26.3927 94.36
lradius 32.0928
lwrist 14.6448
lhand -25.848 -7.58786
lfingers 7.12502
lthumb 0.692569 22.3908
rfemur -16.2237 -2.54565 20.0651
rtibia 21.7979
rfoot -11.4794 -2.6386
rtoes 15.8755
lfemur -14.731 6.28596 -19.2848
ltibia 18.7549
lfoot -8.65051 7.07166
ltoes 8.38068
490
root 0.268628 17.7565 -6.59067 6.53033 0.0379776 -1.45361
lowerback -0.444753 0.17983 -0.369222
upperback 3.56537 0.199719 1.48407
thorax 3.91078 0.0607659 1.7436
lowerneck -11.4442 0.525007 -1.87389
upperneck 37.2556 1.11341 0.573646
head 14.7978 0.296584 0.748174
rclavicle -4.96962e-016 0
rhumerus -11.482 4.83761 -90.5133
rradius 30.6776
rwrist 28.8229
rhand -19.9702 -22.8773
rfingers 7.12502
rthumb 6.36862 -52.7616
lclavicle -4.96962e-016 0
lhumerus -8.85821 -26.2415 94.6201
lradius 31.8084
lwrist 14.4204
lhand -25.5842 -7.53053
lfingers 7.12502
lthumb 0.947315 22.4471
rfemur -16.2118 -2.55965 20.0832
rtibia 21.7565
rfoot -11.4835 -2.64639
rtoes 15.8539
lfemur -14.7272 6.28797 -19.2695
ltibia 18.7225
lfoot -8.65731 7.05563
ltoes 8.39132
491
root 0.266033 17.7577 -6.58507 6.55852 0.0482067 -1.45945
lowerback -0.450745 0.171254 -0.35499
upperback 3.58109 0.187671 1.48518
thorax 3.93095 0.0550104 1.73644
lowerneck -11.4333 0.537284 -1.88373
upperneck 37.3058 1.12859 0.589853
head 14.8189 0.303282 0.759408
rclavicle 2.13694e-015 1.39149e-015
rhumerus -11.9396 4.37637 -90.4183
rradius 30.2811
rwrist 29.1219
rhand -19.8011 -22.8912
rfingers 7.12502
rthumb 6.53185 -52.7704
lclavicle 2.13694e-015 1.39149e-015
lhumerus -9.43667 -26.0424 94.8549
lradius 31.4845
lwrist 14.2089
lhand -25.3256 -7.48369
lfingers 7.12502
lthumb 1.19713 22.4927
rfemur -16.1984 -2.57498 20.1007
rtibia 21.7148
rfoot -11.4883 -2.64707
rtoes 15.8364
lfemur -14.7208 6.28721 -19.2544
ltibia 18.6906
lfoot -8.66488 7.0493
ltoes 8.40228
492
root 0.263444 17.7588 -6.57933 6.58688 0.0577466 -1.46133
lowerback -0.456845 0.161954 -0.345827
upperback 3.59769 0.174777 1.48613
thorax 3.95209 0.0486657 1.73192
lowerneck -11.4062 0.549593 -1.90895
upperneck 37.3325 1.14124 0.622478
head 14.8247 0.309219 0.779485
rclavicle 3.57812e-015 5.96354e-016
rhumerus -12.3924 3.86996 -90.2988
rradius 29.8502
rwrist 29.4723
rhand -19.629 -22.885
rfingers 7.12502
rthumb 6.69797 -52.759
lclavicle 3.57812e-015 5.96354e-016
lhumerus -10.0133 -25.8043 95.0608
lradius 31.111
lwrist 14.0153
lhand -25.0611 -7.43803
lfingers 7.12502
lthumb 1.4526 22.5368
rfemur -16.1862 -2.59505 20.1139
rtibia 21.6755
rfoot -11.4951 -2.64224
rtoes 15.8195
lfemur -14.7135 6.28302 -19.2438
ltibia 18.6582
lfoot -8.67252 7.04812
ltoes 8.41586
493
root 0.260764 17.7599 -6.5736 6.619 0.0654799 -1.47143
lowerback -0.464765 0.152982 -0.329418
upperback 3.61337 0.162052 1.48929
thorax 3.97332 0.0426092 1.72563
lowerneck -11.3723 0.560514 -1.93532
upperneck 37.3428 1.15135 0.656036
head 14.821 0.314202 0.799538
rclavicle 1.49089e-015 5.56597e-015
rhumerus -12.8486 3.32066 -90.1547
rradius 29.4052
rwrist 29.868
rhand -19.4379 -22.8755
rfingers 7.12502
rthumb 6.8824 -52.7437
lclavicle 1.49089e-015 5.56597e-015
lhumerus -10.5908 -25.5026 95.2371
lradius 30.6959
lwrist 13.8167
lhand -24.7899 -7.37481
lfingers 7.12502
lthumb 1.71451 22.598
rfemur -16.1799 -2.61275 20.1368
rtibia 21.6386
rfoot -11.5015 -2.63616
rtoes 15.806
lfemur -14.7113 6.27813 -19.2243
ltibia 18.6269
lfoot -8.67846 7.05188
ltoes 8.43047
494
root 0.258218 17.7608 -6.56706 6.64117 0.0644511 -1.47728
lowerback -0.469752 0.147499 -0.315291
upperback 3.63261 0.154094 1.49008
thorax 3.99644 0.0388725 1.71836
lowerneck -11.3498 0.570137 -1.94457
upperneck 37.3583 1.16176 0.671778
head 14.8228 0.319247 0.809313
rclavicle -1.19271e-015 -4.57205e-015
rhumerus -13.3105 2.72023 -89.9842
rradius 28.9496
rwrist 30.3066
rhand -19.2281 -22.8681
rfingers 7.12502
rthumb 7.08497 -52.7295
lclavicle -1.19271e-015 -4.57205e-015
lhumerus -11.1652 -25.1588 95.3832
lradius 30.2341
lwrist 13.6279
lhand -24.5217 -7.28676
lfingers 7.12502
lthumb 1.97351 22.6839
rfemur -16.1629 -2.63077 20.1539
rtibia 21.6048
rfoot -11.5121 -2.62122
rtoes 15.8001
lfemur -14.6944 6.27601 -19.2085
ltibia 18.5963
lfoot -8.68838 7.06243
ltoes 8.44668
495
root 0.255652 17.7616 -6.55999 6.66128 0.0517808 -1.48308
lowerback -0.47694 0.146271 -0.302095
upperback 3.65193 0.151831 1.49053
thorax 4.0207 0.0379445 1.71149
lowerneck -11.3287 0.577725 -1.94538
upperneck 37.3735 1.17124 0.675636
head 14.825 0.323495 0.812499
rclavicle -4.57205e-015 -6.55989e-015
rhumerus -13.7816 2.07363 -89.7851
rradius 28.4908
rwrist 30.777
rhand -18.9947 -22.8652
rfingers 7.12502
rthumb 7.31026 -52.7189
lclavicle -4.57205e-015 -6.55989e-015
lhumerus -11.7376 -24.75 95.499
lradius 29.7306
lwrist 13.4223
lhand -24.262 -7.17593
lfingers 7.12502
lthumb 2.22434 22.7922
rfemur -16.1454 -2.64193 20.1703
rtibia 21.5743
rfoot -11.5226 -2.60104
rtoes 15.8004
lfemur -14.6728 6.2793 -19.1928
ltibia 18.5669
lfoot -8.69788 7.08009
ltoes 8.45533
496
root 0.253056 17.7622 -6.55235 6.67848 0.0252008 -1.48544
lowerback -0.488237 0.150599 -0.292846
upperback 3.67351 0.157106 1.48902
thorax 4.04939 0.0406437 1.70515
lowerneck -11.3163 0.581556 -1.9319
upperneck 37.3935 1.17824 0.661245
head 14.8319 0.326184 0.805277
rclavicle 9.93923e-017 1.31198e-014
rhumerus -14.2625 1.37282 -89.5562
rradius 28.0362
rwrist 31.2724
rhand -18.7464 -22.8565
rfingers 7.12502
rthumb 7.5499 -52.7017
lclavicle 9.93923e-017 1.31198e-014
lhumerus -12.2995 -24.3012 95.5784
lradius 29.1844
lwrist 13.2073
lhand -24.0164 -7.02839
lfingers 7.12502
lthumb 2.46154 22.9372
rfemur -16.127 -2.64423 20.1819
rtibia 21.5483
rfoot -11.533 -2.57564
rtoes 15.8013
lfemur -14.643 6.28783 -19.1806
ltibia 18.5354
lfoot -8.7067 7.10581
ltoes 8.4604
497
root 0.250348 17.7628 -6.54442 6.6978 -0.00512789 -1.48031
lowerback -0.51017 0.154505 -0.291405
upperback 3.69738 0.162005 1.48581
thorax 4.08651 0.0428701 1.7015
lowerneck -11.3055 0.586127 -1.91784
upperneck 37.4139 1.18758 0.643174
head 14.8394 0.329433 0.796789
rclavicle 2.33572e-015 1.35174e-014
rhumerus -14.7528 0.636934 -89.2979
rradius 27.593
rwrist 31.7778
rhand -18.4771 -22.8508
rfingers 7.12502
rthumb 7.80988 -52.6866
lclavicle 2.33572e-015 1.35174e-014
lhumerus -12.8466 -23.7939 95.617
lradius 28.5957
lwrist 12.9399
lhand -23.8018 -6.86726
lfingers 7.12502
lthumb 2.66875 23.0958
rfemur -16.1128 -2.64489 20.1854
rtibia 21.5257
rfoot -11.5432 -2.54824
rtoes 15.8197
lfemur -14.6152 6.29921 -19.1766
ltibia 18.5058
lfoot -8.71683 7.13163
ltoes 8.45569
